<svg width="21" height="20" viewBox="0 0 21 20" fill="none" xmlns="http://www.w3.org/2000/svg">
<g clip-path="url(#clip0_566_71)">
<path d="M19.9219 9.96094C19.9219 15.4492 15.459 19.9219 9.96094 19.9219C4.47266 19.9219 0 15.4492 0 9.96094C0 4.46289 4.47266 0 9.96094 0C15.459 0 19.9219 4.46289 19.9219 9.96094ZM8.36914 8.1543C7.95898 8.1543 7.63672 8.47656 7.63672 8.86719C7.63672 9.28711 7.95898 9.58984 8.36914 9.58984H9.44336V14.1797H8.20312C7.7832 14.1797 7.46094 14.502 7.46094 14.8926C7.46094 15.3125 7.7832 15.6152 8.20312 15.6152H12.2949C12.7148 15.6152 13.0371 15.3125 13.0371 14.8926C13.0371 14.502 12.7148 14.1797 12.2949 14.1797H11.0547V9.07227C11.0547 8.52539 10.7812 8.1543 10.2637 8.1543H8.36914ZM8.55469 5.16602C8.55469 5.9082 9.14062 6.49414 9.87305 6.49414C10.6055 6.49414 11.1816 5.9082 11.1816 5.16602C11.1816 4.42383 10.6055 3.83789 9.87305 3.83789C9.14062 3.83789 8.55469 4.42383 8.55469 5.16602Z" fill="black" fill-opacity="0.85"/>
</g>
<defs>
<clipPath id="clip0_566_71">
<rect width="20.2832" height="19.9316" fill="white"/>
</clipPath>
</defs>
</svg>
