<svg width="21" height="20" viewBox="0 0 21 20" fill="none" xmlns="http://www.w3.org/2000/svg">
<path d="M2.10145 6.05187H17.8985C18.5362 6.05187 19 5.6444 19 5.01865C19 4.40745 18.5362 4 17.8985 4H2.10145C1.44927 4 1 4.40745 1 5.01865C1 5.6444 1.44927 6.05187 2.10145 6.05187ZM4.24637 10.8686H15.7536C16.3912 10.8686 16.8406 10.4612 16.8406 9.8355C16.8406 9.22424 16.3912 8.8168 15.7536 8.8168H4.24637C3.5942 8.8168 3.14492 9.22424 3.14492 9.8355C3.14492 10.4612 3.5942 10.8686 4.24637 10.8686ZM6.47825 15.7H13.5072C14.1449 15.7 14.6087 15.278 14.6087 14.6669C14.6087 14.0556 14.1449 13.6482 13.5072 13.6482H6.47825C5.84056 13.6482 5.39128 14.0556 5.39128 14.6669C5.39128 15.278 5.84056 15.7 6.47825 15.7Z" fill="black" fill-opacity="0.85"/>
</svg>
