<svg width="21" height="20" viewBox="0 0 21 20" fill="none" xmlns="http://www.w3.org/2000/svg">
<g clip-path="url(#clip0_556_39)">
<path d="M19.9219 9.96094C19.9219 15.4492 15.459 19.9219 9.96094 19.9219C4.47266 19.9219 0 15.4492 0 9.96094C0 4.46289 4.47266 0 9.96094 0C15.459 0 19.9219 4.46289 19.9219 9.96094ZM5.98633 11.2988C5.52734 11.2988 5.21484 11.582 5.21484 12.002C5.21484 12.4316 5.52734 12.7246 5.98633 12.7246H13.9746C14.4238 12.7246 14.7363 12.4316 14.7363 12.002C14.7363 11.582 14.4238 11.2988 13.9746 11.2988H5.98633ZM4.49219 7.95898C4.04297 7.95898 3.7207 8.24219 3.7207 8.67188C3.7207 9.0918 4.04297 9.38477 4.49219 9.38477H15.4688C15.9082 9.38477 16.2402 9.0918 16.2402 8.67188C16.2402 8.24219 15.9082 7.95898 15.4688 7.95898H4.49219Z" fill="black" fill-opacity="0.85"/>
</g>
<defs>
<clipPath id="clip0_556_39">
<rect width="20.2832" height="19.9316" fill="white"/>
</clipPath>
</defs>
</svg>
