<svg width="21" height="20" viewBox="0 0 21 20" fill="none" xmlns="http://www.w3.org/2000/svg">
<g clip-path="url(#clip0_563_7)">
<path d="M1 13.8267C1 14.315 1.39605 14.6739 1.93878 14.6739H3.68431C5.00448 14.6739 5.81124 14.3006 6.77936 13.2093L11.3999 7.92514C12.016 7.22156 12.4854 6.97745 13.2921 6.97745H14.583V8.41335C14.583 8.84412 14.8763 9.13131 15.3017 9.13131C15.5218 9.13131 15.7271 9.05951 15.8591 8.91592L18.7342 6.60412C19.0716 6.3313 19.0861 5.82873 18.7488 5.54155L15.8444 3.18668C15.6978 3.0718 15.5071 3 15.3017 3C14.8616 3 14.583 3.27283 14.583 3.7036V5.28309H13.2334C11.9133 5.28309 11.0919 5.65642 10.1238 6.7477L5.51788 12.0318C4.88714 12.7498 4.43241 12.9796 3.71366 12.9796H1.93878C1.41071 12.9796 1 13.3529 1 13.8267ZM1 6.13027C1 6.60412 1.41071 6.97745 1.93878 6.97745H3.71366C4.43241 6.97745 4.9018 7.22156 5.51788 7.92514L10.1238 13.2093C11.0919 14.3006 11.9133 14.6739 13.2334 14.6739H14.583V16.2964C14.583 16.7272 14.8616 17 15.3017 17C15.5071 17 15.6978 16.9282 15.8444 16.8134L18.7342 14.4729C19.0861 14.1857 19.0861 13.6974 18.7488 13.4247L15.8591 11.0841C15.7271 10.9405 15.5218 10.8687 15.3017 10.8687C14.8763 10.8687 14.583 11.1559 14.583 11.5867V12.9796H13.2921C12.4854 12.9796 12.016 12.7354 11.3999 12.0318L6.77936 6.7477C5.81124 5.65642 5.00448 5.28309 3.68431 5.28309H1.93878C1.39605 5.28309 1 5.64207 1 6.13027Z" fill="black" fill-opacity="0.85"/>
</g>
<defs>
<clipPath id="clip0_563_7">
<rect width="20.2832" height="19.9316" fill="white"/>
</clipPath>
</defs>
</svg>
